{"title":"Resistance.2011.BRRip.XviD.Ac3.Feel-Free","uid":7119287,"size":1098835914,"categoryP":"video","categoryS":"movies","magnet":"?xt=urn:btih:b53700ee57fc3f000b89a16d0948ef91a15a6d30&amp;dn=Resistance.2011.BRRip.XviD.Ac3.Feel-Free&amp;tr=udp%3A%2F%2Ftracker.openbittorrent.com%3A80&amp;tr=udp%3A%2F%2Fopen.demonii.com%3A1337&amp;tr=udp%3A%2F%2Ftracker.coppersurfer.tk%3A6969&amp;tr=udp%3A%2F%2Fexodus.desync.com%3A6969","seeders":1,"leechers":0,"uploader":".BONE.","files":9,"time":1332311789,"description":"Genre:Drama | Thriller\nLanguage:English &lt;a href=&quot;\nhttp://www.imdb.com/title/tt1391116/&quot; rel=&quot;nofollow&quot; target=&quot;_NEW&quot;&gt;\nhttp://www.imdb.com/title/tt1391116/&lt;/a&gt;\nSource:BluRay.x264.DTS-HDChina Thanks!\nEncoder:Tony\n\nFormat : AVI\nFormat/Info : Audio Video Interleave\nFile size : 1.02 GiB\nDuration : 1h 31mn\nOverall bit rate : 1 602 Kbps\n\nVideo\nID : 0\nFormat : MPEG-4 Visual\nFormat profile : Advanced Simple@L5\nFormat settings, BVOP : 1\nFormat settings, QPel : No\nFormat settings, GMC : No warppoints\nFormat settings, Matrix : Default (H.263)\nCodec ID : XVID\nCodec ID/Hint : XviD\nDuration : 1h 31mn\nBit rate : 1 145 Kbps\nWidth : 640 pixels\nHeight : 264 pixels\nDisplay aspect ratio : 2.40:1\nFrame rate : 24.000 fps\nColor space : YUV\nChroma subsampling : 4:2:0\nBit depth : 8 bits\nScan type : Progressive\nCompression mode : Lossy\nBits/(Pixel*Frame) : 0.282\nStream size : 748 MiB (71%)\nWriting library : XviD 1.2.1 (UTC 2008-12-04)\n\nAudio\nID : 1\nFormat : AC-3\nFormat/Info : Audio Coding 3\nMode extension : CM (complete main)\nCodec ID : 2000\nDuration : 1h 31mn\nBit rate mode : Constant\nBit rate : 448 Kbps\nChannel(s) : 2 channels\nChannel positions : Front: L R\nSampling rate : 48.0 KHz\nBit depth : 16 bits\nCompression mode : Lossy\nStream size : 293 MiB (28%)\nAlignment : Aligned on interleaves\nInterleave, duration : 42 ms (1.00 video frame)\nInterleave, preload duration : 512 ms\n\n\nPlot:\n1944 a group of women in an isolated Welsh village wake up to discover all of the their husbands have mysteriously vanished.","torrent":{"xt":"urn:btih:b53700ee57fc3f000b89a16d0948ef91a15a6d30","amp;dn":"Resistance.2011.BRRip.XviD.Ac3.Feel-Free","amp;tr":["udp%3A%2F%2Ftracker.openbittorrent.com%3A80","udp%3A%2F%2Fopen.demonii.com%3A1337","udp%3A%2F%2Ftracker.coppersurfer.tk%3A6969","udp%3A%2F%2Fexodus.desync.com%3A6969"],"infoHash":"b53700ee57fc3f000b89a16d0948ef91a15a6d30","infoHashBuffer":{"type":"Buffer","data":[181,55,0,238,87,252,63,0,11,137,161,109,9,72,239,145,161,90,109,48]},"announce":[],"urlList":[]}}